<?xml version="1.0" encoding="UTF-8" standalone="no"?>
<svg width="317px" height="136px" viewBox="0 0 317 136" version="1.1" xmlns="http://www.w3.org/2000/svg" xmlns:xlink="http://www.w3.org/1999/xlink">
    <!-- Generator: Sketch 3.6.1 (26313) - http://www.bohemiancoding.com/sketch -->
    <title>logo + architecture</title>
    <desc>Created with Sketch.</desc>
    <defs>
        <linearGradient x1="0%" y1="0%" x2="100%" y2="100%" id="linearGradient-1">
            <stop stop-color="#0068B3" offset="0%"></stop>
            <stop stop-color="#8716D9" offset="100%"></stop>
        </linearGradient>
    </defs>
    <g id="form" stroke="none" stroke-width="1" fill="none" fill-rule="evenodd">
        <g id="3.-Guideline" transform="translate(-499.000000, -326.000000)">
            <g id="logo-+-architecture" transform="translate(499.000000, 326.500000)">
                <g id="logo" fill="url(#linearGradient-1)">
                    <path d="M84.0621206,17.6719461 C83.9636041,17.51104 83.8595889,17.3547182 83.7592395,17.1951875 C83.0247183,16.0317131 82.2320037,14.9099552 81.3806373,13.8377068 C81.2083479,13.6208733 81.0383495,13.4017477 80.8614779,13.1890401 C74.747036,5.84466569 65.9112459,0.906546918 55.785118,0.111643655 C35.475585,-1.48274709 17.6812027,14.1874826 16.039871,35.1112251 C15.8877431,37.0517243 15.8813281,38.9693023 16.0087123,40.8524988 C16.0165019,40.9565605 16.0265827,41.0606222 16.0348306,41.164684 C16.0728626,41.6684894 16.118226,42.1704612 16.1755031,42.6687656 C16.1846674,42.7512815 16.1947482,42.833339 16.2043707,42.9158549 C17.0103737,50.0571485 19.2647992,57.1883568 23.660929,62.9754725 C29.193894,70.2588768 38.054886,74.6698106 47.3466016,75.5903214 C48.170475,75.7131785 49.0003052,75.818157 49.8429655,75.8841698 C52.6605392,76.1055875 55.4281673,75.9891483 58.1123999,75.5774856 C68.0249989,74.0564424 76.7700622,68.4343584 82.5348848,60.3395477 L71.4607068,37.0636432 L84.0621206,17.6719461 L84.0621206,17.6719461 Z M57.5707879,8.93305281 C65.0168072,8.48517479 71.2677976,13.4741784 72.0348521,20.477487 C72.4225034,27.2515847 67.125978,33.8106827 59.6808752,34.2585607 C52.5093277,34.6899356 45.6195834,29.7463157 45.216811,22.7141266 C44.8291598,15.9400288 50.1256851,9.38093084 57.5707879,8.93305281 L57.5707879,8.93305281 Z M44.0442348,29.5175633 L48.4366988,35.3165981 L43.2061567,40.4133308 L36.6229593,34.4203836 L44.0442348,29.5175633 L44.0442348,29.5175633 Z M42.9999593,51.5332664 C42.612308,44.7591687 47.9088334,38.2000707 55.353478,37.7521927 C62.7994972,37.3043146 69.0504876,42.2933182 69.8180004,49.2966268 C70.2056516,56.0707246 64.9091263,62.6298226 57.4640235,63.0777006 C50.292476,63.5090754 43.4022734,58.565914 42.9999593,51.5332664 Z M88.5288158,86.6442444 C88.2433468,79.2989532 86.6996152,72.3121477 84.1294785,65.8914931 C77.7543114,73.3857714 68.9212706,78.5333889 59.0512857,80.0480142 C56.0463014,80.5091865 52.9473828,80.6389198 49.7925617,80.3913721 C48.849552,80.3175662 47.9202888,80.1997518 46.9978988,80.0626837 C43.966338,79.7619591 40.978766,79.1201687 38.1094138,78.1730694 C36.0268195,84.7298753 36.0566036,92.0875439 37.9082567,98.6136355 C40.5929476,108.076835 45.0184032,116.192733 52.1633742,122.784379 C54.0741373,124.547469 56.0669212,126.213832 58.05329,127.883862 C61.3753601,130.677026 68.2568565,134.241713 68.2586894,134.24263 C68.3512491,134.290764 68.5679856,134.240796 68.8365005,134.141777 C72.0660109,131.146908 74.9848504,127.893031 77.5494886,124.420486 C84.9350232,113.847448 89.0750099,100.717791 88.5288158,86.6442444 Z M50.4336067,126.782733 C42.0995637,119.093626 36.9377541,109.626759 33.8058438,98.5884223 C31.7970224,91.5090157 31.6293151,83.5911557 33.5698623,76.3650541 C28.4378367,73.9404617 23.8909537,70.4303266 20.4786149,65.9382521 C15.5569107,59.4589195 13.0325957,51.4750469 12.129909,43.4787968 C12.11937,43.386654 12.1079146,43.2945113 12.0978339,43.2023685 C12.0336835,42.6440108 11.9828215,42.0824442 11.9402074,41.5185855 C11.9305848,41.401688 11.9195876,41.2852489 11.9108815,41.1688097 C11.7683761,39.0600698 11.7757076,36.9132809 11.9461642,34.7408204 C12.0914188,32.8860461 12.3530605,31.0693208 12.7187173,29.2956872 C4.73933397,40.3441091 0,54.1238076 0,69.0701893 C0,95.7856319 15.1316858,118.782357 36.8703962,129.094096 C44.501535,132.106843 52.3008392,133.991415 59.525998,134.801904 C59.7308208,134.812448 59.9365601,134.818408 60.1413829,134.826659 C59.0902341,134.119315 58.1069013,133.405552 57.3041059,132.730755 C54.9869047,130.782463 52.6628303,128.838755 50.4336067,126.782733 Z M59.3596654,30.4046093 C64.5310976,29.8522112 68.2344039,25.721373 67.9535172,20.8176359 C67.4384817,16.1156043 63.0625135,12.2350645 57.8915395,12.7870042 C52.9111836,13.3187734 48.7634073,17.4917863 49.298146,22.3739776 C49.8131814,27.0760092 54.1886914,30.9565491 59.3596654,30.4046093 L59.3596654,30.4046093 Z M58.2622367,17.235987 C60.8122119,17.0232793 63.0418938,18.8028724 63.2425926,21.2105033 C63.4432915,23.6185926 61.5389434,25.7429189 58.9889682,25.9556265 C56.4394512,26.1683342 54.2093112,24.3887411 54.0090705,21.9806518 C53.8083717,19.5730209 55.7127197,17.4486947 58.2622367,17.235987 Z M55.6788117,41.6547368 C50.7254906,42.1837554 46.6001668,46.3333888 47.1321563,51.1885333 C47.6444424,55.8648932 51.9961252,59.7243457 57.1386897,59.1751565 C62.2817125,58.6259673 65.964399,54.5180502 65.6853451,49.64136 C65.173059,44.965 60.8213763,41.1055476 55.6788117,41.6547368 Z M88.7913739,29.3782031 C88.5787614,28.4187264 88.3272005,27.4734609 88.0449391,26.5414895 C88.0137803,26.4397199 87.9849127,26.3370334 87.9532957,26.2352638 C87.9038084,26.0734409 87.8483642,25.9134517 87.7970439,25.7520873 C87.2517662,24.0829738 86.599724,22.4610778 85.8413756,20.9006102 L75.1227736,37.3414468 L84.5739486,57.172312 C87.340202,52.3501739 89.1212898,46.8330685 89.5877542,40.8845883 C89.8988833,36.9215325 89.6051665,33.0547453 88.7913739,29.3782031 Z M56.7698254,54.7509285 C54.2340549,54.9622609 52.0167449,53.192753 51.8174207,50.797958 C51.6176383,48.4031629 53.5114473,46.2902972 56.0472178,46.0789648 C58.5829883,45.8676324 60.8007565,47.6371402 61.0000807,50.0319353 C61.1998632,52.4267303 59.3060541,54.5395961 56.7698254,54.7509285 Z"></path>
                </g>
                <text id="OWL" font-family="Helvetica" font-size="84" font-weight="normal" letter-spacing="1.73478258" fill="#414447">
                    <tspan x="123.5" y="101">OWL</tspan>
                </text>
            </g>
        </g>
    </g>
</svg>